<svg version="1.2" xmlns="http://www.w3.org/2000/svg" viewBox="936 175 951 732" width="951" height="732">
	<style>
		tspan { white-space:pre } 
		.s0 { fill: #52b7cb } 
		.s1 { fill: #8581ff } 
		.s2 { fill: #1d0d00 } 
		.s3 { fill: #7660ff } 
		.s4 { fill: #b8acff } 
		.s5 { fill: #ffffff } 
		.s6 { fill: #624ad0 } 
		.s7 { fill: #5834cd } 
	</style>
	<g id="BACKGROUND">
	</g>
	<g id="OBJECTS">
		<g id="&lt;Group&gt;">
			<g id="&lt;Group&gt;">
				<g id="&lt;Group&gt;">
					<g id="&lt;Group&gt;">
						<path id="&lt;Path&gt;" class="s0" d="m1775.92 246.97c0 7.57 6.14 13.71 13.71 13.71 7.57 0 13.71-6.14 13.71-13.71 0-7.58-6.14-13.72-13.71-13.72-7.57 0-13.71 6.14-13.71 13.72z"/>
					</g>
				</g>
				<g id="&lt;Group&gt;">
					<g id="&lt;Group&gt;">
						<path id="&lt;Path&gt;" class="s0" d="m1380.54 685.02c-5.36-5.36-14.04-5.36-19.4 0-5.35 5.35-5.35 14.04 0 19.39z"/>
					</g>
				</g>
				<g id="&lt;Group&gt;">
					<g id="&lt;Group&gt;">
						<path id="&lt;Path&gt;" class="s0" d="m1037.36 687.22c5.35-5.35 5.35-14.03 0-19.39-5.36-5.35-14.04-5.35-19.4 0z"/>
					</g>
				</g>
				<g id="&lt;Group&gt;">
					<g id="&lt;Group&gt;">
						<path id="&lt;Path&gt;" class="s0" d="m1611.61 277.78l13.21-13.21-13.21-13.22-13.22 13.22z"/>
					</g>
				</g>
				<g id="&lt;Group&gt;">
					<g id="&lt;Group&gt;">
						<path id="&lt;Path&gt;" class="s0" d="m1073.86 246.38v28.19l-21.38-14.09z"/>
					</g>
				</g>
				<g id="&lt;Group&gt;">
					<g id="&lt;Group&gt;">
						<path id="&lt;Path&gt;" class="s0" d="m1807.46 649.01h-28.2l14.1-21.38z"/>
					</g>
				</g>
			</g>
			<g id="&lt;Group&gt;">
				<g id="&lt;Group&gt;">
					<path id="&lt;Compound Path&gt;" class="s1" d="m1580.4 716.32c-110.74 0-200.82-90.08-200.82-200.81 0-110.73 90.08-200.82 200.82-200.82 110.73 0 200.81 90.09 200.81 200.82 0 110.73-90.08 200.81-200.81 200.81zm0-399.37c-109.49 0-198.56 89.07-198.56 198.56 0 109.48 89.07 198.55 198.56 198.55 109.48 0 198.55-89.07 198.55-198.55 0-109.49-89.07-198.56-198.55-198.56z"/>
				</g>
				<g id="&lt;Group&gt;">
					<path id="&lt;Compound Path&gt;" class="s1" d="m1264.58 356.67c-29.34 0-53.21-23.87-53.21-53.21 0-29.34 23.87-53.21 53.21-53.21 29.34 0 53.21 23.87 53.21 53.21 0 29.34-23.87 53.21-53.21 53.21zm0-104.16c-28.09 0-50.95 22.86-50.95 50.95 0 28.09 22.86 50.95 50.95 50.95 28.09 0 50.95-22.86 50.95-50.95 0-28.09-22.86-50.95-50.95-50.95z"/>
				</g>
				<g id="&lt;Group&gt;">
					<g id="&lt;Group&gt;">
						<g id="&lt;Group&gt;">
							<path id="&lt;Path&gt;" class="s2" d="m1789.28 802.06q-0.18 0-0.36-0.06c-0.59-0.19-0.91-0.83-0.71-1.43l32.92-99.15c0.2-0.59 0.84-0.92 1.44-0.72 0.59 0.2 0.91 0.84 0.71 1.43l-32.93 99.16c-0.15 0.47-0.6 0.77-1.07 0.77z"/>
						</g>
						<g id="&lt;Group&gt;">
							<path id="&lt;Path&gt;" class="s2" d="m1801.94 810.86q-0.19 0-0.39-0.01c-0.62-0.02-1.11-0.55-1.08-1.18 0.02-0.62 0.56-1.1 1.17-1.08 4.84 0.22 8.67-4.35 9.85-8.71 1.21-4.45 0.57-9.28-0.05-13.96l-0.16-1.19c-0.66-5.09-1.17-10.95 1.17-16.08 1.31-2.88 3.4-5.27 5.43-7.58 2.37-2.71 4.6-5.27 5.58-8.45 1.37-4.48-0.01-9.17-1.47-14.14-1.53-5.21-3.11-10.59-1.31-15.8 1.18-3.4 3.47-6.05 5.68-8.62 2.18-2.53 4.25-4.92 5.26-7.94 1.07-3.21 0.42-6.49-1.78-9-2.27-2.56-5.7-3.75-8.97-3.1-7.81 1.55-8.33 8.69-8.87 16.25-0.25 3.35-0.5 6.81-1.47 9.62-1.37 3.93-4.49 6.72-7.5 9.41-2.94 2.62-5.7 5.09-6.87 8.47-0.93 2.68-0.74 5.62-0.54 8.73 0.25 3.8 0.5 7.72-1.43 11.18-1.3 2.32-3.34 3.95-5.32 5.54q-0.79 0.62-1.56 1.27-0.97 0.82-1.87 1.72c-0.44 0.44-1.15 0.44-1.6 0-0.44-0.44-0.44-1.16 0-1.6q0.97-0.96 2.01-1.85 0.79-0.66 1.6-1.31c1.89-1.52 3.68-2.95 4.76-4.88 1.61-2.87 1.39-6.29 1.15-9.92-0.21-3.2-0.42-6.51 0.65-9.62 1.37-3.94 4.49-6.72 7.51-9.42 2.93-2.61 5.7-5.09 6.87-8.46 0.88-2.53 1.11-5.69 1.35-9.04 0.55-7.7 1.18-16.42 10.69-18.32 4.06-0.8 8.31 0.67 11.11 3.84 2.75 3.13 3.56 7.21 2.23 11.21-1.15 3.44-3.46 6.11-5.7 8.7-2.17 2.52-4.21 4.89-5.25 7.88-1.57 4.53-0.15 9.33 1.34 14.42 1.49 5.07 3.03 10.31 1.47 15.44-1.12 3.65-3.63 6.51-6.05 9.28-2 2.29-3.9 4.45-5.07 7.03-2.09 4.59-1.6 10.07-0.98 14.85l0.15 1.18c0.65 4.9 1.32 9.97-0.01 14.86-1.41 5.22-5.87 10.38-11.73 10.38z"/>
						</g>
						<g id="&lt;Group&gt;">
							<path id="&lt;Path&gt;" class="s2" d="m1765.15 798.36q-0.43 0-0.77-0.31c-5.25-4.89-7.01-12.94-4.3-19.58 0.46-1.13 1.04-2.21 1.6-3.26 1.15-2.16 2.24-4.2 2.26-6.41 0.01-2.3-1.14-4.44-2.37-6.7-1.15-2.11-2.34-4.31-2.62-6.8-0.39-3.47 1.03-6.63 2.41-9.69q0.52-1.13 0.99-2.27c1.33-3.26 1.37-5.99 0.14-9.11l-0.12-0.31c-1.16-2.95-2.48-6.29-2.15-9.76 0.29-2.99 2.32-6.35 5.65-6.97 3.34-0.63 6.33 1.76 7.68 4.23 1.43 2.63 1.65 5.71 1.83 8.18q0.04 0.62 0.07 1.35c0.08 1.92 0.19 4.31 1.02 5.63 1.18 1.88 2.64 3.35 4.05 4.77 3.13 3.14 6.08 6.11 5.05 12.45q-0.15 0.89-0.31 1.77c-0.53 2.85-1.02 5.55-0.06 8.22 0.93 2.6 2.8 4.87 4.61 7.06q0.53 0.64 1.05 1.27c3.82 4.75 4.25 12.82 3.02 18.31-0.14 0.61-0.74 1-1.35 0.86-0.61-0.14-0.99-0.74-0.86-1.35 1.15-5.14 0.63-12.42-2.58-16.39q-0.5-0.63-1.02-1.26c-1.94-2.34-3.94-4.76-5.01-7.74-1.16-3.24-0.58-6.37-0.03-9.39q0.16-0.86 0.3-1.72c0.85-5.2-1.47-7.54-4.41-10.49-1.5-1.51-3.06-3.07-4.37-5.17-1.14-1.83-1.27-4.55-1.36-6.73q-0.03-0.7-0.07-1.29c-0.21-2.86-0.45-5.22-1.56-7.25-1-1.84-3.14-3.49-5.28-3.09-2.2 0.4-3.6 2.86-3.8 4.96-0.29 2.93 0.87 5.87 2 8.71l0.12 0.31c1.44 3.67 1.39 7-0.16 10.8q-0.48 1.17-1.02 2.34c-1.31 2.91-2.54 5.65-2.22 8.5 0.23 2.06 1.27 3.97 2.36 5.99 1.31 2.41 2.66 4.9 2.64 7.79-0.02 2.76-1.29 5.15-2.52 7.45-0.56 1.05-1.09 2.04-1.5 3.06-2.33 5.69-0.76 12.87 3.74 17.07 0.46 0.42 0.49 1.14 0.06 1.6-0.22 0.24-0.53 0.36-0.83 0.36z"/>
						</g>
						<g id="&lt;Group&gt;">
							<path id="&lt;Path&gt;" class="s2" d="m1778.69 791.88c-0.54 0-1.02-0.39-1.12-0.94l-10.86-61.83c-0.11-0.62 0.3-1.2 0.92-1.31 0.62-0.11 1.2 0.3 1.31 0.92l10.86 61.83c0.11 0.62-0.3 1.2-0.91 1.31q-0.1 0.02-0.2 0.02z"/>
						</g>
					</g>
					<g id="&lt;Group&gt;">
						<path id="&lt;Path&gt;" class="s2" d="m1759 881.56h58.66l10-93.91h-78.66z"/>
					</g>
					<g id="&lt;Group&gt;">
						<g id="&lt;Group&gt;">
						</g>
						<g id="&lt;Group&gt;">
						</g>
						<g id="&lt;Group&gt;">
						</g>
						<g id="&lt;Group&gt;">
						</g>
					</g>
				</g>
				<g id="&lt;Group&gt;">
					<g id="&lt;Group&gt;">
						<path id="&lt;Path&gt;" class="s1" d="m1279.15 506.56h74.55v-98.08h-74.55z"/>
					</g>
					<g id="&lt;Group&gt;">
						<g id="&lt;Group&gt;">
							<path id="&lt;Compound Path&gt;" class="s3" d="m1331.65 458.65c-0.33 0-0.63-0.14-0.85-0.38-3.64-4.12-8.89-6.49-14.38-6.49-5.49 0-10.73 2.37-14.37 6.49-0.43 0.49-1.27 0.49-1.7 0-3.47-3.92-5.38-8.97-5.38-14.2 0-11.83 9.62-21.46 21.45-21.46 11.83 0 21.46 9.63 21.46 21.46 0 5.23-1.91 10.28-5.38 14.2-0.22 0.24-0.53 0.38-0.85 0.38zm-15.23-9.13c5.7 0 11.16 2.28 15.17 6.29 2.6-3.35 4.02-7.48 4.02-11.74 0-10.59-8.61-19.19-19.19-19.19-10.58 0-19.19 8.6-19.19 19.19 0 4.26 1.42 8.39 4.02 11.74 4.02-4.01 9.47-6.29 15.17-6.29z"/>
						</g>
						<g id="&lt;Group&gt;">
							<path id="&lt;Compound Path&gt;" class="s3" d="m1316.42 492.43c-11.83 0-21.45-9.63-21.45-21.46 0-5.23 1.91-10.28 5.38-14.2 0.43-0.49 1.27-0.49 1.7 0 3.64 4.12 8.88 6.49 14.37 6.49 5.49 0 10.73-2.37 14.38-6.49 0.43-0.49 1.27-0.49 1.7 0 3.47 3.92 5.38 8.97 5.38 14.2 0 11.83-9.63 21.46-21.46 21.46zm-15.17-33.2c-2.6 3.35-4.02 7.48-4.02 11.74 0 10.59 8.61 19.19 19.19 19.19 10.58 0 19.19-8.6 19.19-19.19 0-4.26-1.42-8.39-4.02-11.74-4.01 4.01-9.47 6.29-15.17 6.29-5.7 0-11.15-2.28-15.17-6.29z"/>
						</g>
					</g>
				</g>
				<g id="&lt;Group&gt;">
					<g id="&lt;Group&gt;">
						<g id="&lt;Group&gt;">
							<g id="&lt;Group&gt;">
								<path id="&lt;Path&gt;" class="s4" d="m1576.09 520.87l2.39 41.67h-83.27c0 0 11.19-24.29 33.35-13.22l14.31-21.09 1.88-10.15z"/>
							</g>
							<g id="&lt;Group&gt;">
								<path id="&lt;Path&gt;" class="s5" d="m1638.99 435.53c0 0 43.45 18.31 50.05 23.02 3.63 2.6 21.87 10.35 9.33 73.38 0 0-23.39-2.11-37.32-6.34l-6.92 43h-84.07l2.85-48-28.16-2.51c0 0 10.33-63.5 21.11-69.3 10.77-5.81 45.75-12.04 45.75-12.04z"/>
							</g>
							<g id="&lt;Group&gt;">
								<g id="&lt;Group&gt;">
									<path id="&lt;Path&gt;" class="s2" d="m1630.79 427.11c0 0 9.04 0.99 11.42 10.3 2.38 9.31-5.07 28.92-8.54 28.67-3.48-0.24-17.62-13.25-17.62-13.25 0 0-14.77 12.62-18.19 11.14-3.42-1.49 2.29-26.56 6.26-31.65 3.98-5.09 16.83-7.32 26.67-5.21z"/>
								</g>
								<g id="&lt;Group&gt;">
									<path id="&lt;Path&gt;" class="s4" d="m1605.08 433.59c0 0 0.87 9.19 1.2 10.92 0.65 3.49 4.2 7.68 14.16 5.97 13.07-2.23 15.36-12.83 14.38-17.81-0.98-4.99-4.71-22.7-4.71-22.7z"/>
								</g>
								<g id="&lt;Group&gt;">
									<path id="&lt;Path&gt;" class="s2" d="m1605.72 439.96c16.61-3.69 19.3-21.7 19.3-21.7l-3.85 0.14-16.09 15.19c0 0 0.32 3.34 0.64 6.37z"/>
								</g>
								<g id="&lt;Group&gt;">
									<path id="&lt;Path&gt;" class="s3" d="m1594.38 379.11q1.41-0.75 2.94-1.3h-0.01c2.54-0.78 5.31-3.78 9.15-6.63 3.85-2.84 16.25-7.39 29.54-0.65 9.87 5.01 19.87 17.27 23.57 26 3.69 8.73 0 11.28-5.72 9.21-5.37-1.94-9.08 0.71-9.08 0.71v-0.01q0.16 1.2 0.21 2.37c-2.53 1.23-5.43 3.09-7.96 4.31-1.47-3.22-3.4-6.23-5.7-8.93-0.77 2.76-2.32 6.62-4.84 5.78-2.84-0.94-6.26-10.59-7.87-15.61q-0.59-0.29-1.19-0.55c-8.59-3.77-18.11-4.35-27.02-1.44 0 0 1.73-12.05 3.98-13.26z"/>
								</g>
								<g id="&lt;Group&gt;">
									<path id="&lt;Path&gt;" class="s4" d="m1601.52 390.53c-5.38 0.58-10.99 1.4-10.99 1.4q-1.92 6.14-2.07 15.42c-0.32 19.92 2.79 25 12.64 26.99 9.86 1.98 22.29-6.45 27.5-15.6 0 0 5.05-2.17 7.89-6.4 1.28-1.92-5.1-9.26-5.8-8.46-0.76 0.89-1.38 1.87-2.11 2.83-2.42 3.2-4.36 1.03-6.31-4.99-0.78-2.4-1.68-4.8-2.72-7.08 0 0-9.66-5-18.03-4.11z"/>
								</g>
								<g id="&lt;Group&gt;">
									<g id="&lt;Group&gt;">
										<path id="&lt;Path&gt;" class="s2" d="m1600.65 420.68q-0.02 0-0.05-0.01c-1.35-0.06-3.1-0.68-3.61-2.2-0.19-0.58-0.18-1.16-0.15-1.65 0.09-1.53 0.3-3.04 0.51-4.49 0.2-1.39 0.41-2.82 0.5-4.23l0.03-0.54c0.11-1.62 0.21-3.16-0.38-4.51-1.2-2.74-4.51-3.28-7.16-3.23q-0.01 0-0.02 0c-0.62 0-1.12-0.49-1.13-1.11-0.01-0.63 0.49-1.14 1.11-1.15 4.69-0.07 7.93 1.51 9.27 4.58 0.81 1.86 0.69 3.74 0.57 5.57l-0.03 0.53c-0.09 1.5-0.31 2.98-0.51 4.41-0.21 1.41-0.42 2.87-0.5 4.3-0.02 0.29-0.03 0.6 0.04 0.81 0.1 0.31 0.85 0.62 1.57 0.65 0.62 0.03 1.1 0.56 1.07 1.19-0.03 0.6-0.53 1.08-1.13 1.08z"/>
									</g>
									<g id="&lt;Group&gt;">
										<path id="&lt;Path&gt;" class="s2" d="m1616.09 403.48q-0.26 0-0.51-0.13c-3.51-1.76-7.75-1.88-11.34-0.29-0.57 0.25-1.24-0.01-1.49-0.58-0.26-0.57 0-1.24 0.58-1.49 4.2-1.86 9.16-1.73 13.27 0.34 0.56 0.28 0.78 0.96 0.5 1.52-0.2 0.4-0.6 0.63-1.01 0.63z"/>
									</g>
									<g id="&lt;Group&gt;">
										<path id="&lt;Path&gt;" class="s2" d="m1604.12 409.32c-0.37 0-0.73-0.18-0.95-0.52-0.34-0.52-0.19-1.23 0.33-1.57 3.13-2.02 7.4-2.12 10.62-0.23 0.54 0.32 0.72 1.01 0.4 1.55-0.32 0.54-1.01 0.72-1.55 0.4-2.5-1.46-5.81-1.39-8.24 0.19q-0.29 0.18-0.61 0.18z"/>
									</g>
									<g id="&lt;Group&gt;">
										<path id="&lt;Path&gt;" class="s2" d="m1596.16 408.48q-0.29 0-0.56-0.15c-1.55-0.89-3.53-0.99-5.17-0.29-0.58 0.25-1.24-0.01-1.49-0.59-0.25-0.57 0.02-1.24 0.59-1.49 2.28-0.98 5.03-0.83 7.19 0.4 0.54 0.31 0.73 1 0.42 1.54-0.21 0.37-0.59 0.58-0.98 0.58z"/>
									</g>
									<g id="&lt;Group&gt;">
										<path id="&lt;Path&gt;" class="s2" d="m1631.14 413.9c-0.55 0-1.03-0.4-1.12-0.96-0.33-2.09 0-5.1 1.92-7.25 0.42-0.46 1.13-0.5 1.6-0.08 0.46 0.41 0.5 1.13 0.09 1.59-1.4 1.56-1.61 3.88-1.37 5.39 0.1 0.61-0.32 1.19-0.94 1.29q-0.09 0.02-0.18 0.02z"/>
									</g>
									<g id="&lt;Group&gt;">
										<path id="&lt;Path&gt;" class="s2" d="m1601.48 425.32c-1.41 0-2.82-0.3-4.11-0.92-0.56-0.27-0.8-0.95-0.53-1.51 0.27-0.57 0.95-0.81 1.51-0.53 2.14 1.02 4.83 0.9 6.86-0.32 0.53-0.32 1.23-0.15 1.55 0.39 0.32 0.53 0.15 1.23-0.39 1.55-1.48 0.89-3.19 1.34-4.89 1.34z"/>
									</g>
								</g>
							</g>
							<g id="&lt;Group&gt;">
								<g id="&lt;Group&gt;">
									<path id="&lt;Compound Path&gt;" class="s2" d="m1637.02 414.26q-0.19 0-0.38-0.07c-0.29-0.1-0.52-0.32-0.65-0.6-3.77-8.26-10.71-15.1-19.03-18.75-8.38-3.68-17.69-4.17-26.21-1.39-0.37 0.12-0.78 0.04-1.08-0.21-0.3-0.25-0.45-0.64-0.39-1.03 0.54-3.79 2.08-12.76 4.56-14.09 8.31-4.47 20.66-4.03 32.23 1.16 10.81 4.84 19.61 17.8 20.04 29.49 0.02 0.45-0.23 0.87-0.64 1.06-1.23 0.6-2.59 1.38-3.91 2.12-1.35 0.77-2.75 1.57-4.04 2.19q-0.24 0.12-0.5 0.12zm-35.06-24.85c5.4 0 10.82 1.12 15.91 3.36 8.47 3.71 15.58 10.53 19.68 18.82 0.94-0.49 1.93-1.06 2.89-1.6 1.12-0.64 2.27-1.29 3.37-1.86-0.73-10.55-8.97-22.44-18.66-26.78-10.95-4.91-22.53-5.38-30.24-1.24-0.86 0.55-2.21 5.24-3.12 10.66 3.32-0.91 6.74-1.36 10.17-1.36z"/>
								</g>
								<g id="&lt;Group&gt;">
									<path id="&lt;Path&gt;" class="s2" d="m1644.78 407.58c-0.36 0-0.71-0.17-0.93-0.48-0.36-0.51-0.24-1.21 0.26-1.57 0.18-0.13 4.26-2.98 10.13-0.85 2.33 0.85 4.16 0.82 5.01-0.08 1.1-1.16 0.84-3.94-0.73-7.63-3.56-8.42-13.38-20.53-23.03-25.43-13.37-6.78-25.25-1.74-28.35 0.55-1.29 0.95-2.43 1.91-3.54 2.83-2.18 1.82-4.06 3.39-5.96 3.97-0.6 0.18-1.23-0.16-1.41-0.75-0.19-0.6 0.15-1.23 0.75-1.42 1.46-0.44 3.18-1.88 5.17-3.54 1.08-0.9 2.3-1.92 3.64-2.91 3.4-2.51 16.33-8.05 30.73-0.75 10.23 5.2 20.29 17.59 24.09 26.57 2.51 5.92 1.54 8.74 0.29 10.06-1.53 1.61-4.16 1.84-7.43 0.66-4.71-1.71-7.91 0.47-8.04 0.56q-0.31 0.21-0.65 0.21z"/>
								</g>
								<g id="&lt;Group&gt;">
									<path id="&lt;Path&gt;" class="s2" d="m1600.58 387.05q-0.16 0-0.32-0.05c-0.6-0.18-0.94-0.81-0.76-1.41l1.61-5.38c0.18-0.6 0.8-0.94 1.41-0.76 0.6 0.18 0.94 0.81 0.76 1.41l-1.61 5.38c-0.15 0.49-0.6 0.81-1.09 0.81z"/>
								</g>
								<g id="&lt;Group&gt;">
									<path id="&lt;Path&gt;" class="s2" d="m1606.69 383.93q-0.23 0-0.46-0.1c-0.57-0.25-0.83-0.93-0.57-1.5l1.02-2.25c0.26-0.57 0.93-0.82 1.5-0.57 0.57 0.26 0.82 0.93 0.56 1.5l-1.02 2.26c-0.18 0.42-0.6 0.66-1.03 0.66z"/>
								</g>
								<g id="&lt;Group&gt;">
									<path id="&lt;Path&gt;" class="s2" d="m1615.28 387.62q-0.36 0-0.67-0.21c-0.5-0.37-0.61-1.08-0.25-1.59l2.62-3.6c0.36-0.5 1.07-0.62 1.58-0.25 0.5 0.37 0.61 1.08 0.25 1.58l-2.61 3.6c-0.23 0.31-0.57 0.47-0.92 0.47z"/>
								</g>
								<g id="&lt;Group&gt;">
									<path id="&lt;Path&gt;" class="s2" d="m1624.18 391.35q-0.29 0-0.56-0.15c-0.54-0.31-0.73-1-0.42-1.54 0.81-1.43 1.91-2.71 3.2-3.73 0.49-0.39 1.2-0.3 1.59 0.19 0.39 0.49 0.3 1.2-0.19 1.59-1.06 0.83-1.97 1.89-2.63 3.07-0.21 0.36-0.59 0.57-0.99 0.57z"/>
								</g>
								<g id="&lt;Group&gt;">
									<path id="&lt;Path&gt;" class="s2" d="m1631.17 396.4c-0.4 0-0.78-0.2-0.99-0.57-0.31-0.55-0.12-1.24 0.43-1.55 1.02-0.57 1.87-1.42 2.45-2.44 0.31-0.54 1-0.73 1.54-0.42 0.54 0.31 0.73 1 0.42 1.54-0.78 1.38-1.92 2.52-3.3 3.29q-0.26 0.15-0.55 0.15z"/>
								</g>
							</g>
							<g id="&lt;Group&gt;">
								<path id="&lt;Path&gt;" class="s4" d="m1574.38 511.53c-0.47 0-0.91-0.29-1.07-0.76-5.88-17.09-8.8-34.92-8.69-52.99 0-0.62 0.5-1.12 1.13-1.12q0 0 0 0c0.63 0 1.13 0.51 1.13 1.14-0.1 17.81 2.78 35.39 8.57 52.23 0.2 0.59-0.11 1.24-0.7 1.44q-0.19 0.06-0.37 0.06z"/>
							</g>
							<g id="&lt;Group&gt;">
								<path id="&lt;Path&gt;" class="s4" d="m1661.05 523.44q-0.06 0-0.12 0c-0.62-0.07-1.07-0.63-1-1.25 2.75-25.26 6.73-43.23 11.83-53.41 4.44-8.87 9.08-10.62 12.62-11.16 0.63-0.09 1.19 0.34 1.29 0.96 0.09 0.61-0.34 1.19-0.96 1.28-4.37 0.66-15.98 2.41-22.53 62.57-0.06 0.58-0.56 1.01-1.13 1.01z"/>
							</g>
							<g id="&lt;Group&gt;">
								<path id="&lt;Path&gt;" class="s2" d="m1527.24 568.59h84.37v-7.14h-84.37z"/>
							</g>
							<g id="&lt;Group&gt;">
								<path id="&lt;Path&gt;" class="s2" d="m1451 568.59h93.66l-25.09-61.84c-1.78-4.4-6.05-7.27-10.79-7.27h-77.17c-4.14 0-6.95 4.18-5.4 8.01z"/>
							</g>
							<g id="&lt;Group&gt;">
								<path id="&lt;Path&gt;" class="s4" d="m1661.05 525.59l-2.1 14.44-66.66 14.06c0 0-14.83-3.19-19.4-1.64-2.6 0.87-17.58 11.55-17.58 16.14 0 0 114.23 0 122.32 0 8.1 0 17.8-18.89 20.74-36.66 0 0-15.39-1.39-37.32-6.34z"/>
							</g>
						</g>
						<g id="&lt;Group&gt;">
							<g id="&lt;Group&gt;">
								<g id="&lt;Group&gt;">
									<g id="&lt;Group&gt;">
										<path id="&lt;Compound Path&gt;" class="s2" d="m1646.06 882.69h-3.39c-0.58 0-1.07-0.44-1.13-1.01l-23.56-217.01c-0.04-0.32 0.06-0.64 0.28-0.88 0.21-0.23 0.52-0.37 0.84-0.37h10.04c0.59 0 1.09 0.45 1.13 1.04l16.92 217.01c0.02 0.31-0.08 0.62-0.3 0.85-0.21 0.24-0.51 0.37-0.83 0.37zm-2.38-2.27h1.16l-16.75-214.74h-7.73z"/>
									</g>
									<g id="&lt;Group&gt;">
										<path id="&lt;Compound Path&gt;" class="s2" d="m1555.44 860.22h-3.4c-0.31 0-0.62-0.13-0.83-0.36-0.21-0.24-0.32-0.55-0.29-0.86l16.91-194.55c0.06-0.58 0.55-1.03 1.13-1.03h10.04c0.33 0 0.64 0.14 0.85 0.38 0.22 0.24 0.32 0.57 0.28 0.89l-23.57 194.54c-0.07 0.57-0.55 0.99-1.12 0.99zm-2.16-2.26h1.15l23.3-192.28h-7.73z"/>
									</g>
									<g id="&lt;Group&gt;">
										<path id="&lt;Compound Path&gt;" class="s2" d="m1669.82 882.69h-3.39c-0.58 0-1.07-0.44-1.13-1.01l-23.56-217.01c-0.04-0.32 0.06-0.64 0.28-0.88 0.21-0.23 0.52-0.37 0.84-0.37h10.04c0.59 0 1.09 0.45 1.13 1.04l16.92 217.01c0.02 0.31-0.08 0.62-0.3 0.85-0.21 0.24-0.51 0.37-0.83 0.37zm-2.38-2.27h1.16l-16.74-214.74h-7.74z"/>
									</g>
									<g id="&lt;Group&gt;">
										<path id="&lt;Compound Path&gt;" class="s2" d="m1577.06 882.69h-3.39c-0.31 0-0.62-0.13-0.83-0.37-0.21-0.23-0.32-0.54-0.3-0.85l16.92-217.01c0.04-0.59 0.54-1.04 1.13-1.04h10.04c0.32 0 0.63 0.14 0.84 0.37 0.22 0.24 0.32 0.56 0.28 0.88l-23.56 217.01c-0.06 0.57-0.55 1.01-1.13 1.01zm-2.17-2.27h1.16l23.32-214.74h-7.73z"/>
									</g>
									<g id="&lt;Group&gt;">
										<path id="&lt;Compound Path&gt;" class="s2" d="m1657.02 665.68h-92.18c-0.62 0-1.13-0.5-1.13-1.13v-7.66c0-0.63 0.51-1.13 1.13-1.13h92.18c0.63 0 1.14 0.5 1.14 1.13v7.66c0 0.63-0.51 1.13-1.14 1.13zm-91.05-2.26h89.92v-5.4h-89.92z"/>
									</g>
								</g>
								<g id="&lt;Group&gt;">
									<path id="&lt;Compound Path&gt;" class="s2" d="m1660.26 658.02h-98.65c-3.57 0-6.47-2.9-6.47-6.47v-18.95c0-3.57 2.9-6.47 6.47-6.47h98.65c3.56 0 6.47 2.9 6.47 6.47v18.95c0 3.57-2.91 6.47-6.47 6.47zm-98.65-29.63c-2.32 0-4.21 1.89-4.21 4.21v18.95c0 2.32 1.89 4.21 4.21 4.21h98.65c2.32 0 4.2-1.89 4.2-4.21v-18.95c0-2.32-1.88-4.21-4.2-4.21z"/>
								</g>
							</g>
							<g id="&lt;Group&gt;">
								<g id="&lt;Group&gt;">
									<path id="&lt;Path&gt;" class="s4" d="m1476.88 787.62l-16.66 35.91-48.44-11.69 27.22-58.47z"/>
								</g>
								<g id="&lt;Group&gt;">
									<path id="&lt;Path&gt;" class="s2" d="m1476.88 787.62l-37.88-34.25-4.42 9.49 41.03 27.49z"/>
								</g>
								<g id="&lt;Group&gt;">
									<path id="&lt;Path&gt;" class="s5" d="m1427.85 723.28l58.68 43.54-9.65 20.8-59.83-44.39z"/>
								</g>
								<g id="&lt;Group&gt;">
									<path id="&lt;Path&gt;" class="s2" d="m1409.1 811.18c0 0-4.78-20.05 5.48-27.22 3.75-2.62 10.88-1.63 14.54 11.89 2.36 8.73 2.08 18.1 2.08 18.1 0 0 17.84-2.4 29.02 9.58l-14.24 30.68c0 0-31.42-0.75-60.69-6.81-24.32-5.02-38.97-10.78-38.97-10.78 0 0 0.56-11.79 8.75-15.63 8.18-3.85 54.03-9.81 54.03-9.81z"/>
								</g>
								<g id="&lt;Group&gt;">
									<path id="&lt;Path&gt;" class="s5" d="m1440.72 865.55c0 0-26.38 0.32-56.63-5.52-22.77-4.4-38.63-10.67-38.63-10.67l0.86-12.74 99.66 17.59z"/>
								</g>
								<g id="&lt;Group&gt;">
									<path id="&lt;Path&gt;" class="s5" d="m1445.98 854.21l1.79-3.84c-24.1-0.72-67.28-10.33-67.28-10.33 0 0 1.42-11.03-9.95-22.9-7.06 1.33-13 2.68-15.47 3.85-8.19 3.84-8.75 15.63-8.75 15.63 0 0 14.65 5.76 38.97 10.78 29.27 6.06 60.69 6.81 60.69 6.81z"/>
								</g>
								<g id="&lt;Group&gt;">
									<path id="&lt;Compound Path&gt;" class="s5" d="m1418.12 828.34c-0.52 0-0.97-0.1-1.35-0.22-5.53-1.86-8.46-15.19-8.78-16.71-0.08-0.4 0.06-0.81 0.36-1.08 0.31-0.27 0.74-0.35 1.13-0.21 1.36 0.48 13.39 4.92 14.55 11.02q0.57 3.08-2.44 5.73c-1.29 1.12-2.49 1.47-3.47 1.47zm-7.43-15.31c1.34 5.18 3.95 11.99 6.8 12.94 0.52 0.17 1.35 0.28 2.61-0.81 1.37-1.2 1.93-2.38 1.7-3.59-0.65-3.45-7.07-6.84-11.11-8.54z"/>
								</g>
								<g id="&lt;Group&gt;">
									<path id="&lt;Compound Path&gt;" class="s5" d="m1409.1 812.32q-0.21 0-0.41-0.08c-1.32-0.51-12.93-5.11-13.82-10.72-0.2-1.23 0.03-3.07 2.24-4.85 1.87-1.52 3.54-1.4 4.6-1.03 5.27 1.82 8.18 13.92 8.49 15.29 0.1 0.41-0.04 0.83-0.36 1.11q-0.33 0.27-0.74 0.28zm-8.79-14.66c-0.46 0-1.04 0.17-1.77 0.77-1.66 1.33-1.49 2.39-1.44 2.73 0.45 2.8 5.93 6.12 10.33 8.1-1.34-4.64-3.82-10.57-6.46-11.48q-0.27-0.1-0.66-0.12z"/>
								</g>
								<g id="&lt;Group&gt;">
									<path id="&lt;Path&gt;" class="s5" d="m1403 830.59q-0.41 0-0.75-0.29c-0.47-0.42-0.51-1.13-0.09-1.6 0.05-0.06 5.23-6.05 5.81-17.57 0.03-0.63 0.59-1.1 1.19-1.08 0.62 0.03 1.1 0.57 1.07 1.19-0.62 12.38-6.15 18.71-6.38 18.97-0.23 0.25-0.54 0.38-0.85 0.38z"/>
								</g>
							</g>
							<g id="&lt;Group&gt;">
								<g id="&lt;Group&gt;">
									<path id="&lt;Path&gt;" class="s4" d="m1578.25 733.92l16.17 36.13-40.61 28.88-26.26-58.91z"/>
								</g>
								<g id="&lt;Group&gt;">
									<path id="&lt;Path&gt;" class="s2" d="m1578.25 733.92l-50.7 6.1 4.26 9.57 47.67-12.92z"/>
								</g>
								<g id="&lt;Group&gt;">
									<path id="&lt;Path&gt;" class="s2" d="m1542.34 584.93l-51.17 19.38c-13.19 4.99-20.22 19.36-16.08 32.84l28.48 92.68 65.31-16.85-32.41-70.9 48.13-57.15z"/>
								</g>
								<g id="&lt;Group&gt;">
									<path id="&lt;Path&gt;" class="s5" d="m1497.53 728.69l71.35-15.71 9.37 20.94-72.76 16.02z"/>
								</g>
								<g id="&lt;Group&gt;">
									<path id="&lt;Path&gt;" class="s2" d="m1551.56 800.53c0 0-18.28-9.55-16.95-22 0.48-4.55 5.91-9.28 18.51-3.18 8.14 3.95 15.03 10.32 15.03 10.32 0 0 9.89-15.04 26.27-15.62l13.81 30.88c0 0-21.19 23.21-44.97 41.33-19.75 15.05-33.71 22.33-33.71 22.33 0 0-8.52-8.16-6.05-16.86 2.47-8.7 28.06-47.2 28.06-47.2z"/>
								</g>
								<g id="&lt;Group&gt;">
									<path id="&lt;Path&gt;" class="s5" d="m1613.33 812.33c0 0-17.07 20.13-41.33 39.12-18.26 14.3-33.39 22.15-33.39 22.15l-9.06-9.01 78.68-63.66z"/>
								</g>
								<g id="&lt;Group&gt;">
									<path id="&lt;Path&gt;" class="s5" d="m1608.23 800.93l-1.73-3.87c-16.35 17.71-51.94 43.99-51.94 43.99 0 0-7.39-8.31-23.81-7.52-3.64 6.2-6.5 11.57-7.25 14.2-2.47 8.7 6.05 16.86 6.05 16.86 0 0 13.96-7.28 33.71-22.33 23.78-18.12 44.97-41.33 44.97-41.33z"/>
								</g>
								<g id="&lt;Group&gt;">
									<path id="&lt;Compound Path&gt;" class="s5" d="m1566.03 806.61c-5.71 0-13.92-4.48-15.03-5.09-0.35-0.2-0.58-0.58-0.58-0.99 0-0.41 0.22-0.79 0.58-0.99 1.26-0.71 12.5-6.87 17.86-3.74q2.71 1.58 2.72 5.59c0.01 2.61-1.2 3.87-2.22 4.46-0.91 0.54-2.06 0.76-3.33 0.76zm-12.04-6.08c4.8 2.4 11.65 4.89 14.23 3.37 0.47-0.28 1.1-0.84 1.1-2.5-0.01-1.83-0.53-3.02-1.6-3.65-3.03-1.76-9.8 0.86-13.73 2.78z"/>
								</g>
								<g id="&lt;Group&gt;">
									<path id="&lt;Compound Path&gt;" class="s5" d="m1538.55 805.79c-1.38 0-2.64-0.25-3.63-0.87-1.05-0.66-2.29-2.04-2.19-4.87 0.09-2.41 1.27-3.59 2.25-4.15 4.82-2.78 15.87 2.96 17.11 3.63 0.37 0.2 0.6 0.58 0.6 1 0 0.42-0.23 0.8-0.6 1-1 0.53-8.21 4.26-13.54 4.26zm-0.24-8.39c-0.89 0-1.64 0.14-2.2 0.46-0.45 0.27-1.06 0.78-1.11 2.27-0.08 2.12 0.83 2.69 1.12 2.87 2.4 1.5 8.5-0.45 12.89-2.48-3.37-1.56-7.76-3.12-10.7-3.12z"/>
								</g>
								<g id="&lt;Group&gt;">
									<path id="&lt;Path&gt;" class="s5" d="m1561.34 818.25c-0.56 0-1.05-0.42-1.12-0.99-0.01-0.08-1.13-7.92-9.45-15.92-0.45-0.43-0.46-1.15-0.03-1.6 0.43-0.45 1.15-0.46 1.6-0.03 8.93 8.59 10.08 16.91 10.13 17.26 0.07 0.62-0.36 1.19-0.98 1.27q-0.08 0.01-0.15 0.01z"/>
								</g>
							</g>
							<g id="&lt;Group&gt;">
								<path id="&lt;Path&gt;" class="s2" d="m1672.48 584.93c0 0 7.17 38.37-30.39 42.33l-116.95 55.78-38.61 83.78-53.16-38.49 42.41-85.09c3.43-6.89 9.11-12.39 16.1-15.61l92.72-42.7z"/>
							</g>
							<g id="&lt;Group&gt;">
								<path id="&lt;Path&gt;" class="s3" d="m1480.9 636.85q-0.42 0-0.75-0.29c-0.47-0.42-0.51-1.14-0.09-1.6 3.19-3.55 7.01-6.36 11.34-8.36l82.43-37.95c0.57-0.27 1.24-0.02 1.5 0.55 0.26 0.57 0.01 1.24-0.56 1.5l-82.42 37.96c-4.05 1.87-7.62 4.49-10.6 7.81-0.23 0.25-0.54 0.38-0.85 0.38z"/>
							</g>
							<g id="&lt;Group&gt;">
								<path id="&lt;Path&gt;" class="s3" d="m1508.92 719.36q-0.24 0-0.47-0.11c-0.57-0.26-0.82-0.93-0.55-1.5l16.21-35.18q0.17-0.37 0.54-0.55l20.69-9.87c0.57-0.27 1.24-0.03 1.51 0.53 0.27 0.57 0.03 1.24-0.53 1.51l-20.33 9.7-16.04 34.81c-0.19 0.41-0.6 0.66-1.03 0.66z"/>
							</g>
						</g>
					</g>
					<g id="&lt;Group&gt;">
						<g id="&lt;Group&gt;">
							<g id="&lt;Group&gt;">
								<path id="&lt;Path&gt;" class="s5" d="m1125.55 782.42l6.95 38.97 49.82 1.04-11.41-63.48z"/>
							</g>
							<g id="&lt;Group&gt;">
								<path id="&lt;Path&gt;" class="s2" d="m1125.55 782.42l45.36-23.47 1.85 10.31-46.68 16.12z"/>
							</g>
							<g id="&lt;Group&gt;">
								<path id="&lt;Path&gt;" class="s5" d="m1189.36 732.7l-67.84 27.14 4.03 22.58 69.17-27.67z"/>
							</g>
							<g id="&lt;Group&gt;">
								<path id="&lt;Path&gt;" class="s4" d="m1174.55 779.21l-46.27 18.5-0.97-5.44 46.26-18.5z"/>
							</g>
							<g id="&lt;Group&gt;">
								<path id="&lt;Path&gt;" class="s6" d="m1185.08 822.48c0 0 9.74-18.17 1.64-27.72-2.95-3.49-10.1-4.35-17.09 7.79-4.51 7.84-6.63 16.98-6.63 16.98 0 0-16.63-6.88-30.5 1.86l5.94 33.3c0 0 30.58 7.28 60.43 8.89 24.79 1.34 40.43-0.5 40.43-0.5 0 0 2.46-11.54-4.47-17.34-6.94-5.8-49.75-23.26-49.75-23.26z"/>
							</g>
							<g id="&lt;Group&gt;">
								<path id="&lt;Path&gt;" class="s5" d="m1140.64 866.99c0 0 25.43 7.04 56.17 9.1 23.14 1.56 40.07-0.46 40.07-0.46l2.42-12.55-100.86-8.39z"/>
							</g>
							<g id="&lt;Group&gt;">
								<path id="&lt;Path&gt;" class="s5" d="m1138.44 854.69l-0.74-4.18c23.48 5.45 67.69 7.17 67.69 7.17 0 0 1.43-11.03 15.46-19.6 6.49 3.08 11.88 5.9 13.98 7.66 6.93 5.8 4.47 17.34 4.47 17.34 0 0-15.64 1.84-40.43 0.5-29.85-1.61-60.43-8.89-60.43-8.89z"/>
							</g>
							<g id="&lt;Group&gt;">
								<path id="&lt;Compound Path&gt;" class="s2" d="m1173.06 836.91c-1.15 0-2.71-0.46-4.05-2.45q-2.25-3.32-0.9-6.15c2.67-5.6 15.43-6.83 16.88-6.95 0.4-0.04 0.8 0.15 1.03 0.49 0.23 0.34 0.26 0.78 0.07 1.14-0.69 1.38-6.92 13.53-12.74 13.91q-0.14 0.01-0.29 0.01zm10.01-13.05c-4.34 0.62-11.41 2.26-12.92 5.42-0.53 1.12-0.29 2.4 0.73 3.91 0.93 1.38 1.77 1.5 2.32 1.45 2.99-0.19 7.25-6.11 9.87-10.78z"/>
							</g>
							<g id="&lt;Group&gt;">
								<path id="&lt;Compound Path&gt;" class="s2" d="m1185.08 823.62c-0.37 0-0.72-0.19-0.94-0.5-0.23-0.34-0.26-0.79-0.06-1.16 0.65-1.25 6.55-12.2 12.1-12.62 1.13-0.1 2.77 0.22 4.19 2.16 1.68 2.29 1.44 4.13 0.93 5.27-2.29 5.2-14.69 6.69-16.1 6.84q-0.06 0.01-0.12 0.01zm11.45-12.03q-0.09 0-0.18 0.01c-2.78 0.21-6.69 5.3-9.17 9.45 4.77-0.79 10.91-2.6 12.05-5.2 0.14-0.32 0.57-1.29-0.68-3.01-0.79-1.06-1.5-1.25-2.02-1.25z"/>
							</g>
							<g id="&lt;Group&gt;">
								<path id="&lt;Path&gt;" class="s2" d="m1186.31 842.84c-0.41 0-0.8-0.23-1-0.62-0.16-0.32-3.89-7.84-1.34-19.97 0.13-0.61 0.73-1 1.34-0.87 0.61 0.12 1.01 0.73 0.88 1.34-2.38 11.29 1.1 18.4 1.14 18.48 0.28 0.55 0.05 1.23-0.5 1.52q-0.25 0.12-0.52 0.12z"/>
							</g>
						</g>
						<g id="&lt;Group&gt;">
							<g id="&lt;Group&gt;">
								<path id="&lt;Path&gt;" class="s5" d="m1050.88 737.61l-21.21 33.43 36.01 34.44 34.49-54.5z"/>
							</g>
							<g id="&lt;Group&gt;">
								<path id="&lt;Path&gt;" class="s2" d="m1050.88 737.61l49.29 13.37-5.6 8.85-45.3-19.67z"/>
							</g>
							<g id="&lt;Group&gt;">
								<path id="&lt;Path&gt;" class="s5" d="m1131.51 744.1l-68.34-25.85-12.29 19.36 72.98 27.61z"/>
							</g>
							<g id="&lt;Group&gt;">
								<path id="&lt;Path&gt;" class="s4" d="m1089.17 768.36l-46.62-17.63 2.97-4.66 46.6 17.63z"/>
							</g>
							<g id="&lt;Group&gt;">
								<path id="&lt;Path&gt;" class="s6" d="m1067.68 807.38c0 0 19.46-6.81 19.95-19.32 0.17-4.57-4.52-10.04-17.86-5.82-8.63 2.73-16.36 8.04-16.36 8.04 0 0-7.62-16.31-23.74-19.24l-18.13 28.56c0 0 17.62 26.03 38.53 47.39 17.37 17.74 30.13 26.95 30.13 26.95 0 0 9.62-6.84 8.43-15.8-1.19-8.96-20.95-50.76-20.95-50.76z"/>
							</g>
							<g id="&lt;Group&gt;">
								<path id="&lt;Path&gt;" class="s5" d="m1004.85 810.14c0 0 13.98 22.38 35.24 44.68 16.01 16.78 29.85 26.74 29.85 26.74l10.26-7.62-68.66-74.34z"/>
							</g>
							<g id="&lt;Group&gt;">
								<path id="&lt;Path&gt;" class="s5" d="m1011.54 799.6l2.28-3.59c13.62 19.89 45.04 51.03 45.04 51.03 0 0 8.51-7.15 24.64-4 2.7 6.66 4.77 12.39 5.13 15.1 1.19 8.96-8.43 15.8-8.43 15.8 0 0-12.76-9.21-30.13-26.95-20.91-21.36-38.53-47.39-38.53-47.39z"/>
							</g>
							<g id="&lt;Group&gt;">
								<path id="&lt;Compound Path&gt;" class="s2" d="m1054.47 811.45c-2.07 0-3.94-0.37-5.18-1.37-0.92-0.74-1.93-2.16-1.55-4.73q0.59-3.97 3.49-5.15c5.77-2.32 15.99 5.4 17.14 6.28 0.33 0.25 0.49 0.66 0.43 1.06-0.06 0.41-0.33 0.75-0.72 0.9-1.05 0.4-8.09 3.01-13.61 3.01zm-0.77-9.43q-0.9 0-1.62 0.28c-1.15 0.46-1.83 1.57-2.1 3.38-0.24 1.64 0.3 2.29 0.73 2.63 2.33 1.88 9.47 0.4 14.56-1.28-3.08-2.1-8.13-5.01-11.57-5.01z"/>
							</g>
							<g id="&lt;Group&gt;">
								<path id="&lt;Compound Path&gt;" class="s2" d="m1081.17 814.57c-5.44 0-13.17-5.55-14.16-6.28-0.34-0.25-0.51-0.66-0.45-1.07 0.06-0.42 0.34-0.76 0.74-0.91 1.32-0.47 13.07-4.56 17.45-1.12 0.88 0.7 1.89 2.04 1.62 4.43-0.31 2.82-1.73 4.01-2.87 4.51q-1.06 0.45-2.33 0.44zm-10.97-6.83c4.05 2.64 9.8 5.46 12.39 4.32 0.32-0.14 1.3-0.57 1.53-2.69 0.16-1.47-0.36-2.07-0.77-2.4-2.2-1.73-8.52-0.61-13.15 0.77z"/>
							</g>
							<g id="&lt;Group&gt;">
								<path id="&lt;Path&gt;" class="s2" d="m1055.6 823.51q-0.15 0-0.31-0.04c-0.6-0.17-0.95-0.79-0.78-1.39 0.09-0.34 2.43-8.41 12.51-15.62 0.51-0.36 1.22-0.25 1.58 0.26 0.36 0.51 0.25 1.22-0.26 1.58-9.38 6.72-11.63 14.31-11.65 14.39-0.14 0.5-0.6 0.82-1.09 0.82z"/>
							</g>
						</g>
						<g id="&lt;Group&gt;">
							<g id="&lt;Group&gt;">
								<path id="&lt;Path&gt;" class="s2" d="m1183.81 734.92l-57.05-234.81-54.31-6.97c0 0-3.56 25.82 7.01 47.17l42.06 219.53z"/>
							</g>
							<g id="&lt;Group&gt;">
								<path id="&lt;Path&gt;" class="s2" d="m1169.89 495.13l14.32 118.73c1.23 10.24-0.94 20.6-6.18 29.49l-59.52 100.79-55.34-25.89 70.21-124.53-5.54-87.16z"/>
							</g>
							<g id="&lt;Group&gt;">
								<path id="&lt;Path&gt;" class="s7" d="m1155.45 353.44c10.63 4.27 35.29 21.47 43.36 27.27 8.07 5.8 14.21 58.51 14.21 58.51l-31.46 8.75-3.19 54.12c0 0-69.41 12.3-110.49-5.99l-0.23-46.53-27.16-6.3c0 0 6.9-65.57 29.05-75.28 22.14-9.71 55.97-17.88 57.26-24.09 1.28-6.21 28.65 9.54 28.65 9.54z"/>
							</g>
							<g id="&lt;Group&gt;">
								<path id="&lt;Path&gt;" class="s4" d="m1181.56 447.97l-2.66 45.17c0 0 7.12 13.62 28.12 7.31 21-6.31 39.08-88.66 39.08-88.66l-15.32-5.87-29.01 36.43z"/>
							</g>
							<g id="&lt;Group&gt;">
								<path id="&lt;Path&gt;" class="s4" d="m1156.09 347.07c0 0-0.87 9.19-1.2 10.92-0.65 3.49-4.2 7.68-14.16 5.97-13.07-2.23-15.37-12.83-14.39-17.81 0.98-4.99 4.72-22.7 4.72-22.7z"/>
							</g>
							<g id="&lt;Group&gt;">
								<path id="&lt;Path&gt;" class="s2" d="m1155.45 353.44c-16.61-3.69-19.31-21.7-19.31-21.7l3.86 0.14 16.09 15.19c0 0-0.32 3.34-0.64 6.37z"/>
							</g>
							<g id="&lt;Group&gt;">
								<path id="&lt;Path&gt;" class="s3" d="m1169.65 330.26c0 0 16.89-8.51 16.81-23.7-0.07-15.19-26.38-26.23-35.8-28.23-8.12-1.73-15.17 0.75-15.52 5.97 0 0-23.06-3.9-8.13 32.46l7.93 7.49z"/>
							</g>
							<g id="&lt;Group&gt;">
								<path id="&lt;Path&gt;" class="s2" d="m1169.65 331.36c-0.4 0-0.78-0.22-0.97-0.6-0.27-0.54-0.06-1.2 0.48-1.47 0.16-0.09 16.28-8.4 16.21-22.73-0.04-7.76-7.57-14.15-13.89-18.14-7.45-4.71-16.14-7.98-21.05-9.02-4.93-1.05-9.6-0.48-12.2 1.48q-1.85 1.4-2 3.49c-0.02 0.31-0.17 0.6-0.41 0.79-0.24 0.19-0.55 0.27-0.86 0.22-0.06-0.01-6.25-0.98-9.61 3.25-2.62 3.29-4.28 10.78 2.68 27.71 0.23 0.56-0.04 1.2-0.6 1.43-0.56 0.23-1.2-0.04-1.43-0.6-5.91-14.4-6.71-24.46-2.35-29.92 3.26-4.07 8.33-4.27 10.57-4.14 0.37-1.55 1.28-2.91 2.69-3.98 3.13-2.37 8.35-3.07 13.97-1.87 5.1 1.08 14.09 4.46 21.77 9.31 6.78 4.29 14.86 11.23 14.91 19.98 0.03 6.52-2.98 12.87-8.72 18.35-4.28 4.09-8.52 6.25-8.69 6.34q-0.24 0.12-0.5 0.12z"/>
							</g>
							<g id="&lt;Group&gt;">
								<path id="&lt;Path&gt;" class="s4" d="m1159.36 294.22c8.61 0.92 13.09 10.13 13.35 26.61 0.32 19.92-2.79 25-12.64 26.99-9.86 1.98-22.29-6.45-27.5-15.6 0 0-10.69-4.58-9.69-13.44 0.34-2.99 2.98-4.49 5-3.49 2.31 1.14 3.22 3.15 4.71 4.9 4.58 5.39 3.22-7.13 9.48-8.02 24.38-3.47 17.29-17.95 17.29-17.95z"/>
							</g>
							<g id="&lt;Group&gt;">
								<path id="&lt;Path&gt;" class="s2" d="m1137.91 313.09q-1.14 0-2.36-0.04c-0.61-0.02-1.08-0.53-1.06-1.14 0.03-0.6 0.53-1.07 1.14-1.05 4.98 0.18 8.86-0.21 12.22-1.22 4.15-1.27 7.49-3.57 9.4-6.49 2.11-3.22 2.32-7.2 0.54-10.13-0.31-0.52-0.15-1.19 0.37-1.5 0.51-0.32 1.18-0.15 1.5 0.36 2.21 3.65 1.99 8.54-0.58 12.47-2.19 3.35-5.95 5.97-10.59 7.38-3.04 0.92-6.45 1.36-10.58 1.36z"/>
							</g>
							<g id="&lt;Group&gt;">
								<g id="&lt;Group&gt;">
									<path id="&lt;Path&gt;" class="s2" d="m1160.52 334.15c-0.61 0-1.11-0.47-1.13-1.07-0.03-0.63 0.45-1.16 1.07-1.19 0.72-0.03 1.46-0.35 1.57-0.65 0.07-0.21 0.06-0.52 0.04-0.81-0.08-1.43-0.29-2.89-0.5-4.3-0.2-1.43-0.42-2.91-0.51-4.41l-0.03-0.53c-0.12-1.83-0.24-3.72 0.57-5.57 1.34-3.07 4.53-4.65 9.27-4.58 0.62 0.01 1.12 0.52 1.11 1.15-0.01 0.62-0.51 1.11-1.15 1.11-2.66-0.04-5.96 0.49-7.16 3.23-0.59 1.35-0.49 2.88-0.38 4.51l0.03 0.54c0.09 1.41 0.29 2.84 0.49 4.22 0.21 1.46 0.43 2.97 0.52 4.5 0.03 0.49 0.04 1.07-0.16 1.65-0.5 1.52-2.25 2.14-3.6 2.2q-0.03 0-0.05 0z"/>
								</g>
								<g id="&lt;Group&gt;">
									<path id="&lt;Path&gt;" class="s2" d="m1145.08 316.95c-0.41 0-0.81-0.22-1.01-0.62-0.28-0.56-0.06-1.24 0.5-1.52 4.1-2.07 9.07-2.2 13.27-0.35 0.58 0.26 0.83 0.92 0.58 1.5-0.25 0.57-0.92 0.83-1.49 0.58-3.59-1.59-7.83-1.48-11.34 0.29q-0.25 0.12-0.51 0.12z"/>
								</g>
								<g id="&lt;Group&gt;">
									<path id="&lt;Path&gt;" class="s2" d="m1157.05 322.8q-0.32 0-0.62-0.19c-2.43-1.57-5.73-1.64-8.23-0.18-0.54 0.32-1.24 0.14-1.55-0.4-0.32-0.54-0.14-1.24 0.4-1.55 3.22-1.89 7.49-1.79 10.62 0.23 0.52 0.34 0.67 1.04 0.33 1.57-0.22 0.33-0.58 0.52-0.95 0.52z"/>
								</g>
								<g id="&lt;Group&gt;">
									<path id="&lt;Path&gt;" class="s2" d="m1165.01 321.95c-0.39 0-0.77-0.2-0.98-0.57-0.31-0.54-0.12-1.23 0.42-1.54 2.16-1.23 4.91-1.38 7.19-0.4 0.57 0.25 0.84 0.92 0.59 1.49-0.25 0.58-0.91 0.84-1.49 0.59-1.64-0.71-3.62-0.6-5.17 0.29q-0.27 0.15-0.56 0.14z"/>
								</g>
								<g id="&lt;Group&gt;">
									<path id="&lt;Path&gt;" class="s2" d="m1130.03 327.38q-0.09 0-0.18-0.02c-0.62-0.1-1.04-0.68-0.94-1.3 0.36-2.27-0.52-5.48-2.37-6.44-0.37-0.19-0.83-0.19-1.04 0-0.46 0.43-1.18 0.4-1.61-0.06-0.42-0.46-0.39-1.17 0.07-1.6 0.91-0.84 2.41-0.99 3.63-0.35 3.16 1.66 3.98 6.15 3.55 8.81-0.08 0.56-0.57 0.96-1.11 0.96z"/>
								</g>
								<g id="&lt;Group&gt;">
									<path id="&lt;Path&gt;" class="s2" d="m1126 323.68c-0.53 0-1-0.37-1.11-0.91-0.19-0.94 0.06-1.95 0.67-2.69 0.61-0.74 1.55-1.18 2.51-1.18q0 0 0 0c0.63 0 1.13 0.51 1.13 1.14 0 0.62-0.51 1.13-1.13 1.13q0 0 0 0c-0.28 0-0.58 0.14-0.76 0.35-0.18 0.22-0.26 0.53-0.2 0.81 0.12 0.61-0.28 1.21-0.89 1.33q-0.11 0.02-0.22 0.02z"/>
								</g>
								<g id="&lt;Group&gt;">
									<path id="&lt;Path&gt;" class="s2" d="m1159.69 338.8c-1.7 0-3.41-0.45-4.9-1.34-0.53-0.32-0.71-1.02-0.38-1.55 0.32-0.54 1.01-0.72 1.55-0.39 2.03 1.22 4.72 1.34 6.86 0.31 0.56-0.27 1.24-0.03 1.51 0.53 0.27 0.57 0.03 1.24-0.53 1.52-1.29 0.61-2.7 0.92-4.11 0.92z"/>
								</g>
							</g>
						</g>
						<g id="&lt;Group&gt;">
							<path id="&lt;Path&gt;" class="s3" d="m1145.88 371.85c-9.31 0-18.44-4.23-24.03-11.17-0.4-0.49-0.32-1.2 0.17-1.59 0.48-0.39 1.2-0.32 1.59 0.17 5.34 6.64 14.23 10.59 23.13 10.31 3.19-0.09 5.9-0.72 8.05-1.85 2.46-1.29 4.24-3.37 4.78-5.56 0.14-0.61 0.76-0.98 1.37-0.83 0.6 0.15 0.97 0.76 0.83 1.37-0.7 2.85-2.86 5.41-5.93 7.02-2.46 1.3-5.49 2.01-9.03 2.12q-0.47 0.01-0.94 0.01z"/>
						</g>
						<g id="&lt;Group&gt;">
							<path id="&lt;Path&gt;" class="s3" d="m1181.61 445.22q-0.02 0-0.04 0c-0.62-0.02-1.11-0.54-1.09-1.17l1.9-58.18c0.02-0.62 0.57-1.12 1.17-1.09 0.63 0.02 1.12 0.54 1.1 1.16l-1.91 58.18c-0.02 0.62-0.52 1.1-1.13 1.1z"/>
						</g>
						<g id="&lt;Group&gt;">
							<path id="&lt;Path&gt;" class="s3" d="m1079.71 448.27q-0.1 0-0.22-0.02c-0.61-0.12-1.01-0.72-0.89-1.33 0.13-0.64 12.45-64.28-6.81-74.32-0.55-0.29-0.77-0.98-0.48-1.53 0.29-0.56 0.98-0.77 1.53-0.48 20.74 10.82 8.52 74.08 7.99 76.77-0.11 0.54-0.58 0.91-1.12 0.91z"/>
						</g>
						<g id="&lt;Group&gt;">
							<path id="&lt;Path&gt;" class="s3" d="m1163.01 654.09c-0.51 0-0.97-0.35-1.1-0.87l-32.99-139.4c-0.14-0.61 0.24-1.22 0.84-1.37 0.62-0.14 1.22 0.24 1.37 0.84l32.99 139.41c0.14 0.61-0.24 1.22-0.84 1.36q-0.14 0.03-0.27 0.03z"/>
						</g>
						<g id="&lt;Group&gt;">
							<path id="&lt;Path&gt;" class="s3" d="m1132.63 514.48c-22.24 0-44.81-3.39-53.58-6.87-0.59-0.23-0.87-0.88-0.64-1.47 0.23-0.58 0.89-0.86 1.47-0.63 13.22 5.24 58.37 10.27 85.39 3.38 0.6-0.16 1.22 0.21 1.37 0.81 0.16 0.61-0.21 1.23-0.81 1.38-9.55 2.44-21.33 3.4-33.2 3.4z"/>
						</g>
						<g id="&lt;Group&gt;">
							<path id="&lt;Path&gt;" class="s3" d="m1096.57 543.43c-0.47 0-0.91-0.29-1.07-0.76-0.21-0.59 0.1-1.23 0.7-1.44 2.98-1.04 4.65-6.49 4.71-15.37 0.04-7.11-0.97-13.98-0.99-14.05-0.09-0.62 0.34-1.19 0.96-1.28 0.63-0.1 1.19 0.33 1.29 0.95 0.43 2.92 4.01 28.67-5.23 31.89q-0.19 0.06-0.37 0.06z"/>
						</g>
						<g id="&lt;Group&gt;">
							<path id="&lt;Path&gt;" class="s3" d="m1140.02 749.85c-0.53 0-1-0.36-1.11-0.9l-50.35-239.21c-0.13-0.61 0.26-1.21 0.87-1.34 0.61-0.13 1.21 0.27 1.34 0.88l50.36 239.21c0.12 0.61-0.27 1.21-0.88 1.34q-0.12 0.02-0.23 0.02z"/>
						</g>
						<g id="&lt;Group&gt;">
							<path id="&lt;Path&gt;" class="s3" d="m1137.13 544.71c-0.44 0-0.85-0.26-1.04-0.68-0.25-0.57 0.01-1.24 0.58-1.49 7.4-3.26 5.94-22.22 4.76-29.25-0.11-0.62 0.31-1.2 0.92-1.3 0.62-0.11 1.2 0.31 1.31 0.92 0.04 0.27 1.12 6.72 0.99 13.82-0.17 9.88-2.55 15.89-7.07 17.88q-0.22 0.1-0.45 0.1z"/>
						</g>
						<g id="&lt;Group&gt;">
							<path id="&lt;Path&gt;" class="s3" d="m1117.47 739.82c-0.53 0-1.01-0.38-1.11-0.92l-14.46-75.48c-0.12-0.61 0.28-1.21 0.9-1.32 0.61-0.12 1.2 0.28 1.32 0.9l14.46 75.47c0.12 0.61-0.28 1.21-0.9 1.32q-0.11 0.03-0.21 0.03z"/>
						</g>
						<g id="&lt;Group&gt;">
							<g id="&lt;Group&gt;">
								<path id="&lt;Compound Path&gt;" class="s2" d="m1192.33 524.29c2.17 1.98 94.77 2.25 95.75 0.43 0.97-1.82-0.78-52.33-2.54-57.65-3.25-9.84-14.39-29.58-23.88-45.51-9.47-15.88-13.86-21.75-19.45-21.18-11.61 1.19-44.25 55.56-46.52 59.86-2.28 4.3-5.53 62.07-3.36 64.05zm50.55-118.89c6.78 0 26.85 48.72 24.54 49.95-2.09 1.11-6.28-3.87-10.62-3.58-4.34 0.28-6.35 5.05-9.88 3.71-3.54-1.33-7.43-5.02-11.13-4.62-3.69 0.4-14.59 4.86-17.33 3.17-2.91-1.8 17.33-48.63 24.42-48.63z"/>
							</g>
						</g>
						<g id="&lt;Group&gt;">
							<g id="&lt;Group&gt;">
								<path id="&lt;Path&gt;" class="s5" d="m1254.5 488.58c1.29 0 2.24-1.16 2.06-2.43-1.18-8.1-8.15-14.32-16.57-14.32-8.43 0-15.4 6.22-16.58 14.32-0.18 1.27 0.77 2.43 2.06 2.43z"/>
							</g>
							<g id="&lt;Group&gt;">
								<path id="&lt;Path&gt;" class="s5" d="m1223.49 497.44h32.99c1.74 0 3.14-1.41 3.14-3.14 0-1.73-1.4-3.14-3.14-3.14h-32.99c-1.74 0-3.14 1.41-3.14 3.14 0 1.73 1.4 3.14 3.14 3.14z"/>
							</g>
							<g id="&lt;Group&gt;">
								<path id="&lt;Path&gt;" class="s5" d="m1226.94 507.05h25.94c2.04 0 3.7-1.66 3.7-3.71v-1.05c0-1.02-0.83-1.84-1.84-1.84h-29.66c-1.02 0-1.84 0.82-1.84 1.84v1.05c0 2.05 1.66 3.71 3.7 3.71z"/>
							</g>
						</g>
						<g id="&lt;Group&gt;">
							<path id="&lt;Path&gt;" class="s4" d="m1224.92 405.79c-0.72 1.48-0.76 3.23-0.35 4.83 0.41 1.6 1.24 3.06 2.19 4.41 0.86 1.23 1.85 2.4 3.11 3.23 1.25 0.83 2.79 1.3 4.27 1.02 2.34-0.44 4.06-2.73 4.3-5.1 0.25-2.37-0.75-4.74-2.22-6.61-0.87-1.11-1.91-2.08-2.99-2.98-0.8-0.67-1.71-1.7-2.71-2.07-2.08-0.78-4.76 1.54-5.6 3.27z"/>
						</g>
						<g id="&lt;Group&gt;">
							<path id="&lt;Path&gt;" class="s4" d="m1260.59 402.74c3.02 4.25-4.21 18.62-7.28 17.58-3.07-1.03-2.95-5.56-2.95-5.56 0 0-2.49 4.18-5.09 3.64-2.61-0.54-3.18-4.79-3.18-4.79 0 0-3.81 3.74-5.87 2.32-2.06-1.42-2.35-5.94-2.35-5.94 0 0-4.14 3.88-6.66 2.04-2.52-1.84 3.23-18.27 9.13-17.07 2.63 0.54 2.67 4.11 2.67 4.11 0 0 5.65-4.2 6.62 1.5 0 0 5.99-4.18 7.52 1.63 0 0 4.46-3.65 7.44 0.54z"/>
						</g>
						<g id="&lt;Group&gt;">
							<path id="&lt;Path&gt;" class="s4" d="m1075.93 452.74l-13.85 99.62c0.19 4.75 4.16 19.63 4.31 23.8 0.62 18.17-5.21 25.06-13.14 38.39-7.8 13.11-14.24 21.87-14.44 17.9-0.23-4.34 9.49-23.05 9.49-23.05 0 0-13.8 22.74-16.28 21.95-2.48-0.78 10.73-27.29 10.73-27.29 0 0-16.12 22.95-18.77 21.36-2.66-1.58 12.23-25.09 12.23-25.09 0 0-16.01 12.17-18.03 10.78-2.03-1.39 16.97-19.45 16.97-19.45 0 0-6.25-16.11 0.75-24.84 0 0-2.53-91.68 4.6-123.56q0.11 0.06 0.22 0.12z"/>
						</g>
					</g>
					<g id="&lt;Group&gt;">
						<g id="&lt;Group&gt;">
							<path id="&lt;Compound Path&gt;" class="s2" d="m1283.77 882.69h-4.62c-0.32 0-0.62-0.13-0.83-0.37-0.22-0.23-0.33-0.54-0.3-0.85l23.04-296.63c0.05-0.59 0.54-1.04 1.13-1.04h13.68c0.32 0 0.62 0.14 0.84 0.38 0.21 0.23 0.32 0.55 0.28 0.87l-32.09 296.63c-0.07 0.57-0.55 1.01-1.13 1.01zm-3.4-2.27h2.38l31.85-294.36h-11.36z"/>
						</g>
						<g id="&lt;Group&gt;">
							<path id="&lt;Compound Path&gt;" class="s2" d="m1725.81 882.69h-4.62c-0.58 0-1.06-0.44-1.13-1.01l-32.09-296.63c-0.04-0.32 0.07-0.64 0.28-0.87 0.22-0.24 0.52-0.38 0.84-0.38h13.68c0.59 0 1.08 0.45 1.13 1.04l23.04 296.63c0.03 0.31-0.08 0.62-0.3 0.85-0.21 0.24-0.51 0.37-0.83 0.37zm-3.6-2.27h2.38l-22.87-294.36h-11.36z"/>
						</g>
						<g id="&lt;Group&gt;">
							<path id="&lt;Compound Path&gt;" class="s2" d="m1730.97 586.07h-462.18c-0.62 0-1.13-0.51-1.13-1.14v-16.34c0-0.63 0.51-1.13 1.13-1.13h462.18c0.62 0 1.13 0.5 1.13 1.13v16.34c0 0.63-0.51 1.14-1.13 1.14zm-461.04-2.27h459.9v-14.08h-459.9z"/>
						</g>
					</g>
				</g>
				<g id="&lt;Group&gt;">
					<g id="&lt;Group&gt;">
						<path id="&lt;Path&gt;" class="s1" d="m1270.2 608.74c1.59 0 2.87 1.28 2.87 2.87 0 1.58-1.28 2.87-2.87 2.87-1.58 0-2.87-1.29-2.87-2.87 0-1.59 1.29-2.87 2.87-2.87z"/>
					</g>
					<g id="&lt;Group&gt;">
						<path id="&lt;Path&gt;" class="s1" d="m1270.2 622.1c1.59 0 2.87 1.28 2.87 2.86 0 1.59-1.28 2.87-2.87 2.87-1.58 0-2.87-1.28-2.87-2.87 0-1.58 1.29-2.86 2.87-2.86z"/>
					</g>
					<g id="&lt;Group&gt;">
						<path id="&lt;Path&gt;" class="s1" d="m1256.84 622.1c1.59 0 2.87 1.28 2.87 2.86 0 1.59-1.28 2.87-2.87 2.87-1.58 0-2.86-1.28-2.86-2.87 0-1.58 1.28-2.86 2.86-2.86z"/>
					</g>
					<g id="&lt;Group&gt;">
						<path id="&lt;Path&gt;" class="s1" d="m1243.49 622.1c1.58 0 2.87 1.28 2.87 2.86 0 1.59-1.29 2.87-2.87 2.87-1.59 0-2.87-1.28-2.87-2.87 0-1.58 1.28-2.86 2.87-2.86z"/>
					</g>
					<g id="&lt;Group&gt;">
						<path id="&lt;Path&gt;" class="s1" d="m1230.13 622.1c1.59 0 2.87 1.28 2.87 2.86 0 1.59-1.28 2.87-2.87 2.87-1.58 0-2.87-1.28-2.87-2.87 0-1.58 1.29-2.86 2.87-2.86z"/>
					</g>
					<g id="&lt;Group&gt;">
						<path id="&lt;Path&gt;" class="s1" d="m1243.49 635.45c1.58 0 2.87 1.29 2.87 2.87 0 1.59-1.29 2.87-2.87 2.87-1.59 0-2.87-1.28-2.87-2.87 0-1.58 1.28-2.87 2.87-2.87z"/>
					</g>
					<g id="&lt;Group&gt;">
						<path id="&lt;Path&gt;" class="s1" d="m1230.13 648.81c1.59 0 2.87 1.28 2.87 2.87 0 1.58-1.28 2.87-2.87 2.87-1.58 0-2.87-1.29-2.87-2.87 0-1.59 1.29-2.87 2.87-2.87z"/>
					</g>
					<g id="&lt;Group&gt;">
						<path id="&lt;Path&gt;" class="s1" d="m1203.42 675.52c1.58 0 2.87 1.29 2.87 2.87 0 1.58-1.29 2.87-2.87 2.87-1.59 0-2.87-1.29-2.87-2.87 0-1.58 1.28-2.87 2.87-2.87z"/>
					</g>
					<g id="&lt;Group&gt;">
						<path id="&lt;Path&gt;" class="s1" d="m1203.42 614.48c-1.59 0-2.87-1.29-2.87-2.87 0-1.59 1.28-2.87 2.87-2.87 1.58 0 2.87 1.28 2.87 2.87 0 1.58-1.29 2.87-2.87 2.87z"/>
					</g>
					<g id="&lt;Group&gt;">
						<path id="&lt;Path&gt;" class="s1" d="m1203.42 622.1c1.58 0 2.87 1.28 2.87 2.86 0 1.59-1.29 2.87-2.87 2.87-1.59 0-2.87-1.28-2.87-2.87 0-1.58 1.28-2.86 2.87-2.86z"/>
					</g>
					<g id="&lt;Group&gt;">
						<path id="&lt;Path&gt;" class="s1" d="m1216.78 622.1c1.58 0 2.86 1.28 2.86 2.86 0 1.59-1.28 2.87-2.86 2.87-1.59 0-2.87-1.28-2.87-2.87 0-1.58 1.28-2.86 2.87-2.86z"/>
					</g>
					<g id="&lt;Group&gt;">
						<path id="&lt;Path&gt;" class="s1" d="m1270.2 635.45c1.59 0 2.87 1.29 2.87 2.87 0 1.59-1.28 2.87-2.87 2.87-1.58 0-2.87-1.28-2.87-2.87 0-1.58 1.29-2.87 2.87-2.87z"/>
					</g>
					<g id="&lt;Group&gt;">
						<path id="&lt;Path&gt;" class="s1" d="m1256.84 635.45c1.59 0 2.87 1.29 2.87 2.87 0 1.59-1.28 2.87-2.87 2.87-1.58 0-2.86-1.28-2.86-2.87 0-1.58 1.28-2.87 2.86-2.87z"/>
					</g>
					<g id="&lt;Group&gt;">
						<path id="&lt;Path&gt;" class="s1" d="m1203.42 635.45c1.58 0 2.87 1.29 2.87 2.87 0 1.59-1.29 2.87-2.87 2.87-1.59 0-2.87-1.28-2.87-2.87 0-1.58 1.28-2.87 2.87-2.87z"/>
					</g>
					<g id="&lt;Group&gt;">
						<path id="&lt;Path&gt;" class="s1" d="m1216.78 635.45c1.58 0 2.86 1.29 2.86 2.87 0 1.59-1.28 2.87-2.86 2.87-1.59 0-2.87-1.28-2.87-2.87 0-1.58 1.28-2.87 2.87-2.87z"/>
					</g>
					<g id="&lt;Group&gt;">
						<path id="&lt;Path&gt;" class="s1" d="m1270.2 648.81c1.59 0 2.87 1.28 2.87 2.87 0 1.58-1.28 2.87-2.87 2.87-1.58 0-2.87-1.29-2.87-2.87 0-1.59 1.29-2.87 2.87-2.87z"/>
					</g>
					<g id="&lt;Group&gt;">
						<path id="&lt;Path&gt;" class="s1" d="m1256.84 648.81c1.59 0 2.87 1.28 2.87 2.87 0 1.58-1.28 2.87-2.87 2.87-1.58 0-2.86-1.29-2.86-2.87 0-1.59 1.28-2.87 2.86-2.87z"/>
					</g>
					<g id="&lt;Group&gt;">
						<path id="&lt;Path&gt;" class="s1" d="m1203.42 648.81c1.58 0 2.87 1.28 2.87 2.87 0 1.58-1.29 2.87-2.87 2.87-1.59 0-2.87-1.29-2.87-2.87 0-1.59 1.28-2.87 2.87-2.87z"/>
					</g>
					<g id="&lt;Group&gt;">
						<path id="&lt;Path&gt;" class="s1" d="m1216.78 648.81c1.58 0 2.86 1.28 2.86 2.87 0 1.58-1.28 2.87-2.86 2.87-1.59 0-2.87-1.29-2.87-2.87 0-1.59 1.28-2.87 2.87-2.87z"/>
					</g>
					<g id="&lt;Group&gt;">
						<path id="&lt;Path&gt;" class="s1" d="m1270.2 662.16c1.59 0 2.87 1.29 2.87 2.87 0 1.59-1.28 2.87-2.87 2.87-1.58 0-2.87-1.28-2.87-2.87 0-1.58 1.29-2.87 2.87-2.87z"/>
					</g>
					<g id="&lt;Group&gt;">
						<path id="&lt;Path&gt;" class="s1" d="m1230.13 635.45c1.59 0 2.87 1.29 2.87 2.87 0 1.59-1.28 2.87-2.87 2.87-1.58 0-2.87-1.28-2.87-2.87 0-1.58 1.29-2.87 2.87-2.87z"/>
					</g>
					<g id="&lt;Group&gt;">
						<path id="&lt;Path&gt;" class="s1" d="m1243.49 648.81c1.58 0 2.87 1.28 2.87 2.87 0 1.58-1.29 2.87-2.87 2.87-1.59 0-2.87-1.29-2.87-2.87 0-1.59 1.28-2.87 2.87-2.87z"/>
					</g>
					<g id="&lt;Group&gt;">
						<path id="&lt;Path&gt;" class="s1" d="m1256.84 662.16c1.59 0 2.87 1.29 2.87 2.87 0 1.59-1.28 2.87-2.87 2.87-1.58 0-2.86-1.28-2.86-2.87 0-1.58 1.28-2.87 2.86-2.87z"/>
					</g>
					<g id="&lt;Group&gt;">
						<path id="&lt;Path&gt;" class="s1" d="m1270.2 675.52c1.59 0 2.87 1.29 2.87 2.87 0 1.58-1.28 2.87-2.87 2.87-1.58 0-2.87-1.29-2.87-2.87 0-1.58 1.29-2.87 2.87-2.87z"/>
					</g>
					<g id="&lt;Group&gt;">
						<path id="&lt;Path&gt;" class="s1" d="m1256.84 608.74c1.59 0 2.87 1.28 2.87 2.87 0 1.58-1.28 2.87-2.87 2.87-1.58 0-2.86-1.29-2.86-2.87 0-1.59 1.28-2.87 2.86-2.87z"/>
					</g>
					<g id="&lt;Group&gt;">
						<path id="&lt;Path&gt;" class="s1" d="m1243.49 662.16c1.58 0 2.87 1.29 2.87 2.87 0 1.59-1.29 2.87-2.87 2.87-1.59 0-2.87-1.28-2.87-2.87 0-1.58 1.28-2.87 2.87-2.87z"/>
					</g>
					<g id="&lt;Group&gt;">
						<path id="&lt;Path&gt;" class="s1" d="m1256.84 675.52c1.59 0 2.87 1.29 2.87 2.87 0 1.58-1.28 2.87-2.87 2.87-1.58 0-2.86-1.29-2.86-2.87 0-1.58 1.28-2.87 2.86-2.87z"/>
					</g>
					<g id="&lt;Group&gt;">
						<path id="&lt;Path&gt;" class="s1" d="m1243.49 608.74c1.58 0 2.87 1.28 2.87 2.87 0 1.58-1.29 2.87-2.87 2.87-1.59 0-2.87-1.29-2.87-2.87 0-1.59 1.28-2.87 2.87-2.87z"/>
					</g>
					<g id="&lt;Group&gt;">
						<path id="&lt;Path&gt;" class="s1" d="m1230.13 662.16c1.59 0 2.87 1.29 2.87 2.87 0 1.59-1.28 2.87-2.87 2.87-1.58 0-2.87-1.28-2.87-2.87 0-1.58 1.29-2.87 2.87-2.87z"/>
					</g>
					<g id="&lt;Group&gt;">
						<path id="&lt;Path&gt;" class="s1" d="m1243.49 675.52c1.58 0 2.87 1.29 2.87 2.87 0 1.58-1.29 2.87-2.87 2.87-1.59 0-2.87-1.29-2.87-2.87 0-1.58 1.28-2.87 2.87-2.87z"/>
					</g>
					<g id="&lt;Group&gt;">
						<path id="&lt;Path&gt;" class="s1" d="m1230.13 608.74c1.59 0 2.87 1.28 2.87 2.87 0 1.58-1.28 2.87-2.87 2.87-1.58 0-2.87-1.29-2.87-2.87 0-1.59 1.29-2.87 2.87-2.87z"/>
					</g>
					<g id="&lt;Group&gt;">
						<path id="&lt;Path&gt;" class="s1" d="m1216.78 662.16c1.58 0 2.86 1.29 2.86 2.87 0 1.59-1.28 2.87-2.86 2.87-1.59 0-2.87-1.28-2.87-2.87 0-1.58 1.28-2.87 2.87-2.87z"/>
					</g>
					<g id="&lt;Group&gt;">
						<path id="&lt;Path&gt;" class="s1" d="m1230.13 675.52c1.59 0 2.87 1.29 2.87 2.87 0 1.58-1.28 2.87-2.87 2.87-1.58 0-2.87-1.29-2.87-2.87 0-1.58 1.29-2.87 2.87-2.87z"/>
					</g>
					<g id="&lt;Group&gt;">
						<path id="&lt;Path&gt;" class="s1" d="m1216.78 608.74c1.58 0 2.86 1.28 2.86 2.87 0 1.58-1.28 2.87-2.86 2.87-1.59 0-2.87-1.29-2.87-2.87 0-1.59 1.28-2.87 2.87-2.87z"/>
					</g>
					<g id="&lt;Group&gt;">
						<path id="&lt;Path&gt;" class="s1" d="m1203.42 662.16c1.58 0 2.87 1.29 2.87 2.87 0 1.59-1.29 2.87-2.87 2.87-1.59 0-2.87-1.28-2.87-2.87 0-1.58 1.28-2.87 2.87-2.87z"/>
					</g>
					<g id="&lt;Group&gt;">
						<path id="&lt;Path&gt;" class="s1" d="m1216.78 675.52c1.58 0 2.86 1.29 2.86 2.87 0 1.58-1.28 2.87-2.86 2.87-1.59 0-2.87-1.29-2.87-2.87 0-1.58 1.28-2.87 2.87-2.87z"/>
					</g>
				</g>
				<g id="&lt;Group&gt;">
					<g id="&lt;Group&gt;">
						<path id="&lt;Path&gt;" class="s1" d="m1802.98 291.13c1.59 0 2.87 1.29 2.87 2.87 0 1.59-1.28 2.87-2.87 2.87-1.58 0-2.86-1.28-2.86-2.87 0-1.58 1.28-2.87 2.86-2.87z"/>
					</g>
					<g id="&lt;Group&gt;">
						<path id="&lt;Path&gt;" class="s1" d="m1802.98 304.49c1.59 0 2.87 1.28 2.87 2.87 0 1.58-1.28 2.87-2.87 2.87-1.58 0-2.86-1.29-2.86-2.87 0-1.59 1.28-2.87 2.86-2.87z"/>
					</g>
					<g id="&lt;Group&gt;">
						<path id="&lt;Path&gt;" class="s1" d="m1789.63 304.49c1.58 0 2.87 1.28 2.87 2.87 0 1.58-1.29 2.87-2.87 2.87-1.59 0-2.87-1.29-2.87-2.87 0-1.59 1.28-2.87 2.87-2.87z"/>
					</g>
					<g id="&lt;Group&gt;">
						<path id="&lt;Path&gt;" class="s1" d="m1776.27 304.49c1.59 0 2.87 1.28 2.87 2.87 0 1.58-1.28 2.87-2.87 2.87-1.58 0-2.87-1.29-2.87-2.87 0-1.59 1.29-2.87 2.87-2.87z"/>
					</g>
					<g id="&lt;Group&gt;">
						<path id="&lt;Path&gt;" class="s1" d="m1776.27 317.85c1.59 0 2.87 1.28 2.87 2.87 0 1.58-1.28 2.86-2.87 2.86-1.58 0-2.87-1.28-2.87-2.86 0-1.59 1.29-2.87 2.87-2.87z"/>
					</g>
					<g id="&lt;Group&gt;">
						<path id="&lt;Path&gt;" class="s1" d="m1802.98 317.85c1.59 0 2.87 1.28 2.87 2.87 0 1.58-1.28 2.86-2.87 2.86-1.58 0-2.86-1.28-2.86-2.86 0-1.59 1.28-2.87 2.86-2.87z"/>
					</g>
					<g id="&lt;Group&gt;">
						<path id="&lt;Path&gt;" class="s1" d="m1789.63 317.85c1.58 0 2.87 1.28 2.87 2.87 0 1.58-1.29 2.86-2.87 2.86-1.59 0-2.87-1.28-2.87-2.86 0-1.59 1.28-2.87 2.87-2.87z"/>
					</g>
					<g id="&lt;Group&gt;">
						<path id="&lt;Path&gt;" class="s1" d="m1802.98 331.2c1.59 0 2.87 1.29 2.87 2.87 0 1.59-1.28 2.87-2.87 2.87-1.58 0-2.86-1.28-2.86-2.87 0-1.58 1.28-2.87 2.86-2.87z"/>
					</g>
					<g id="&lt;Group&gt;">
						<path id="&lt;Path&gt;" class="s1" d="m1789.63 331.2c1.58 0 2.87 1.29 2.87 2.87 0 1.59-1.29 2.87-2.87 2.87-1.59 0-2.87-1.28-2.87-2.87 0-1.58 1.28-2.87 2.87-2.87z"/>
					</g>
					<g id="&lt;Group&gt;">
						<path id="&lt;Path&gt;" class="s1" d="m1802.98 344.56c1.59 0 2.87 1.28 2.87 2.87 0 1.58-1.28 2.87-2.87 2.87-1.58 0-2.86-1.29-2.86-2.87 0-1.59 1.28-2.87 2.86-2.87z"/>
					</g>
					<g id="&lt;Group&gt;">
						<path id="&lt;Path&gt;" class="s1" d="m1776.27 331.2c1.59 0 2.87 1.29 2.87 2.87 0 1.59-1.28 2.87-2.87 2.87-1.58 0-2.87-1.28-2.87-2.87 0-1.58 1.29-2.87 2.87-2.87z"/>
					</g>
					<g id="&lt;Group&gt;">
						<path id="&lt;Path&gt;" class="s1" d="m1789.63 344.56c1.58 0 2.87 1.28 2.87 2.87 0 1.58-1.29 2.87-2.87 2.87-1.59 0-2.87-1.29-2.87-2.87 0-1.59 1.28-2.87 2.87-2.87z"/>
					</g>
					<g id="&lt;Group&gt;">
						<path id="&lt;Path&gt;" class="s1" d="m1802.98 357.92c1.59 0 2.87 1.28 2.87 2.86 0 1.59-1.28 2.87-2.87 2.87-1.58 0-2.86-1.28-2.86-2.87 0-1.58 1.28-2.86 2.86-2.86z"/>
					</g>
					<g id="&lt;Group&gt;">
						<path id="&lt;Path&gt;" class="s1" d="m1789.63 291.13c1.58 0 2.87 1.29 2.87 2.87 0 1.59-1.29 2.87-2.87 2.87-1.59 0-2.87-1.28-2.87-2.87 0-1.58 1.28-2.87 2.87-2.87z"/>
					</g>
					<g id="&lt;Group&gt;">
						<path id="&lt;Path&gt;" class="s1" d="m1776.27 344.56c1.59 0 2.87 1.28 2.87 2.87 0 1.58-1.28 2.87-2.87 2.87-1.58 0-2.87-1.29-2.87-2.87 0-1.59 1.29-2.87 2.87-2.87z"/>
					</g>
					<g id="&lt;Group&gt;">
						<path id="&lt;Path&gt;" class="s1" d="m1789.63 357.92c1.58 0 2.87 1.28 2.87 2.86 0 1.59-1.29 2.87-2.87 2.87-1.59 0-2.87-1.28-2.87-2.87 0-1.58 1.28-2.86 2.87-2.86z"/>
					</g>
					<g id="&lt;Group&gt;">
						<path id="&lt;Path&gt;" class="s1" d="m1776.27 291.13c1.59 0 2.87 1.29 2.87 2.87 0 1.59-1.28 2.87-2.87 2.87-1.58 0-2.87-1.28-2.87-2.87 0-1.58 1.29-2.87 2.87-2.87z"/>
					</g>
					<g id="&lt;Group&gt;">
						<path id="&lt;Path&gt;" class="s1" d="m1776.27 357.92c1.59 0 2.87 1.28 2.87 2.86 0 1.59-1.28 2.87-2.87 2.87-1.58 0-2.87-1.28-2.87-2.87 0-1.58 1.29-2.86 2.87-2.86z"/>
					</g>
				</g>
				<g id="&lt;Group&gt;">
					<path id="&lt;Path&gt;" class="s5" d="m1427.26 302.23c0 7.08 5.75 12.83 12.84 12.83 7.09 0 12.83-5.75 12.83-12.83z"/>
				</g>
				<g id="&lt;Group&gt;">
					<path id="&lt;Compound Path&gt;" class="s2" d="m1495.21 302.5h-110.22c-0.41 0-0.79-0.23-0.99-0.59-0.2-0.36-0.18-0.8 0.04-1.15 12.2-19.43 33.16-31.03 56.06-31.03 22.9 0 43.86 11.6 56.06 31.03 0.22 0.35 0.24 0.79 0.04 1.15-0.2 0.36-0.58 0.59-0.99 0.59zm-108.13-2.27h106.04c-11.93-17.72-31.59-28.24-53.02-28.24-21.43 0-41.09 10.52-53.02 28.24z"/>
				</g>
				<g id="&lt;Group&gt;">
					<path id="&lt;Path&gt;" class="s2" d="m1440.1 271.99c-0.63 0-1.13-0.5-1.13-1.13v-72.42c0-0.62 0.5-1.13 1.13-1.13 0.62 0 1.13 0.51 1.13 1.13v72.42c0 0.63-0.51 1.13-1.13 1.13z"/>
				</g>
				<g id="&lt;Group&gt;">
					<g id="&lt;Group&gt;">
						<path id="&lt;Path&gt;" class="s1" d="m1344.24 384.56h49.18v-49.18h-49.18z"/>
					</g>
				</g>
				<g id="&lt;Group&gt;">
					<g id="&lt;Group&gt;">
						<path id="&lt;Path&gt;" class="s1" d="m1455.55 471.22h66.32v-89.81h-66.32z"/>
					</g>
					<g id="&lt;Group&gt;">
						<path id="&lt;Compound Path&gt;" class="s3" d="m1514.87 465.35h-52.32c-0.63 0-1.13-0.51-1.13-1.13v-75.81c0-0.62 0.5-1.13 1.13-1.13h52.32c0.63 0 1.14 0.51 1.14 1.13v75.81c0 0.62-0.51 1.13-1.14 1.13zm-51.19-2.27h50.06v-73.53h-50.06z"/>
					</g>
				</g>
				<g id="&lt;Group&gt;">
					<path id="&lt;Path&gt;" class="s2" d="m1873.93 882.69h-921.02c-0.62 0-1.13-0.51-1.13-1.14 0-0.62 0.51-1.13 1.13-1.13h921.02c0.63 0 1.13 0.51 1.13 1.13 0 0.63-0.5 1.14-1.13 1.14z"/>
				</g>
			</g>
			<g id="&lt;Group&gt;">
				<g id="&lt;Group&gt;">
				</g>
				<g id="&lt;Group&gt;">
					<g id="&lt;Group&gt;">
					</g>
				</g>
			</g>
			<g id="&lt;Group&gt;">
				<g id="&lt;Group&gt;">
				</g>
				<g id="&lt;Group&gt;">
					<g id="&lt;Group&gt;">
					</g>
				</g>
				<g id="&lt;Group&gt;">
					<g id="&lt;Group&gt;">
						<g id="&lt;Group&gt;">
						</g>
					</g>
					<g id="&lt;Group&gt;">
						<g id="&lt;Group&gt;">
						</g>
					</g>
				</g>
			</g>
		</g>
	</g>
</svg>