<svg y="0px" x="0px" viewBox="4.8 5.68 22.48 20.880000000000003" xmlns="http://www.w3.org/2000/svg" style="max-height: 500px" width="22.48" height="20.880000000000003"><title>home heart</title><g data-name="Layer 8"><path d="M25.4,12.3,17.8,6.6a3,3,0,0,0-3.6,0L6.6,12.3A4,4,0,0,0,5,15.5V22a4,4,0,0,0,4,4H23a4,4,0,0,0,4-4V15.5A4,4,0,0,0,25.4,12.3Zm-5.69,6L17.4,20.53a2.05,2.05,0,0,1-2.86,0l-2.22-2.14a2.66,2.66,0,0,1-.82-2,2.46,2.46,0,0,1,.83-1.82,2.8,2.8,0,0,1,3.65,0,2.78,2.78,0,0,1,3.27-.32,2.57,2.57,0,0,1,1.25,2.19A2.6,2.6,0,0,1,19.71,18.32Z"/></g><text font-family="'Helvetica Neue', Helvetica, Arial-Unicode, Arial, Sans-serif" font-weight="bold" font-size="5px" fill="#000000" y="47" x="0">Created by DailyYouth</text><text font-family="'Helvetica Neue', Helvetica, Arial-Unicode, Arial, Sans-serif" font-weight="bold" font-size="5px" fill="#000000" y="52" x="0">from the Noun Project</text></svg>